<mxfile host="app.diagrams.net" modified="2023-06-23T14:41:34.994Z" agent="Mozilla/5.0 (Windows NT 10.0; Win64; x64) AppleWebKit/537.36 (KHTML, like Gecko) Chrome/114.0.0.0 Safari/537.36" etag="D7YLeWygRjTdnhRSN2Wv" version="21.4.0" type="device">
  <diagram name="Page-1" id="13e1069c-82ec-6db2-03f1-153e76fe0fe0">
    <mxGraphModel dx="1434" dy="768" grid="1" gridSize="10" guides="1" tooltips="1" connect="1" arrows="1" fold="1" page="1" pageScale="1" pageWidth="1100" pageHeight="850" background="none" math="0" shadow="0">
      <root>
        <mxCell id="0" />
        <mxCell id="1" parent="0" />
        <mxCell id="7baba1c4bc27f4b0-8" value="Auction Agent" style="shape=umlLifeline;perimeter=lifelinePerimeter;whiteSpace=wrap;html=1;container=1;collapsible=0;recursiveResize=0;outlineConnect=0;rounded=1;shadow=0;comic=0;labelBackgroundColor=none;strokeWidth=1;fontFamily=Verdana;fontSize=12;align=center;" parent="1" vertex="1">
          <mxGeometry x="150" y="80" width="180" height="600" as="geometry" />
        </mxCell>
        <mxCell id="7baba1c4bc27f4b0-9" value="" style="html=1;points=[];perimeter=orthogonalPerimeter;rounded=0;shadow=0;comic=0;labelBackgroundColor=none;strokeWidth=1;fontFamily=Verdana;fontSize=12;align=center;" parent="7baba1c4bc27f4b0-8" vertex="1">
          <mxGeometry x="85" y="100" width="10" height="500" as="geometry" />
        </mxCell>
        <mxCell id="XB6QEq4kw-e9aRP56zeP-51" value="Determine winning bid" style="endArrow=classic;html=1;rounded=0;" edge="1" parent="7baba1c4bc27f4b0-8">
          <mxGeometry x="0.0241" y="60" width="50" height="50" relative="1" as="geometry">
            <mxPoint x="95" y="510" as="sourcePoint" />
            <mxPoint x="95" y="546" as="targetPoint" />
            <Array as="points">
              <mxPoint x="160" y="510" />
              <mxPoint x="160" y="546" />
            </Array>
            <mxPoint as="offset" />
          </mxGeometry>
        </mxCell>
        <mxCell id="7baba1c4bc27f4b0-11" value="Sends demographics" style="html=1;verticalAlign=bottom;endArrow=block;labelBackgroundColor=none;fontFamily=Verdana;fontSize=12;edgeStyle=elbowEdgeStyle;elbow=vertical;" parent="1" source="7baba1c4bc27f4b0-9" edge="1">
          <mxGeometry relative="1" as="geometry">
            <mxPoint x="220" y="190" as="sourcePoint" />
            <mxPoint x="435" y="260" as="targetPoint" />
            <Array as="points">
              <mxPoint x="250" y="260" />
              <mxPoint x="210" y="350" />
              <mxPoint x="210" y="250" />
              <mxPoint x="290" y="210" />
            </Array>
            <mxPoint as="offset" />
          </mxGeometry>
        </mxCell>
        <mxCell id="XB6QEq4kw-e9aRP56zeP-30" value="Sends demographics, requesting ad" style="endArrow=classic;html=1;rounded=0;entryX=0.9;entryY=0.03;entryDx=0;entryDy=0;entryPerimeter=0;" edge="1" parent="1" target="7baba1c4bc27f4b0-9">
          <mxGeometry x="-0.0723" y="13" width="50" height="50" relative="1" as="geometry">
            <mxPoint x="10" y="193" as="sourcePoint" />
            <mxPoint x="70" y="180" as="targetPoint" />
            <mxPoint as="offset" />
          </mxGeometry>
        </mxCell>
        <mxCell id="7baba1c4bc27f4b0-3" value="Auction Participant Agent" style="shape=umlLifeline;perimeter=lifelinePerimeter;whiteSpace=wrap;html=1;container=1;collapsible=0;recursiveResize=0;outlineConnect=0;rounded=1;shadow=0;comic=0;labelBackgroundColor=none;strokeWidth=1;fontFamily=Verdana;fontSize=12;align=center;" parent="1" vertex="1">
          <mxGeometry x="350" y="80" width="170" height="590" as="geometry" />
        </mxCell>
        <mxCell id="XB6QEq4kw-e9aRP56zeP-35" value="" style="html=1;points=[];perimeter=orthogonalPerimeter;rounded=0;shadow=0;comic=0;labelBackgroundColor=none;strokeWidth=1;fontFamily=Verdana;fontSize=12;align=center;" vertex="1" parent="7baba1c4bc27f4b0-3">
          <mxGeometry x="80" y="150" width="10" height="290" as="geometry" />
        </mxCell>
        <mxCell id="XB6QEq4kw-e9aRP56zeP-45" value="Selects ad with the highest bid (money_to_ display)" style="endArrow=classic;html=1;rounded=0;" edge="1" parent="7baba1c4bc27f4b0-3">
          <mxGeometry x="-0.0241" y="130" width="50" height="50" relative="1" as="geometry">
            <mxPoint x="85" y="304" as="sourcePoint" />
            <mxPoint x="85" y="340" as="targetPoint" />
            <Array as="points">
              <mxPoint x="150" y="304" />
              <mxPoint x="150" y="340" />
            </Array>
            <mxPoint as="offset" />
          </mxGeometry>
        </mxCell>
        <mxCell id="XB6QEq4kw-e9aRP56zeP-36" value="" style="swimlane;startSize=0;" vertex="1" parent="1">
          <mxGeometry x="390" y="190" width="550" height="410" as="geometry" />
        </mxCell>
        <mxCell id="XB6QEq4kw-e9aRP56zeP-37" value="For each Auction Participant" style="text;html=1;align=center;verticalAlign=middle;resizable=0;points=[];autosize=1;strokeColor=none;fillColor=none;" vertex="1" parent="XB6QEq4kw-e9aRP56zeP-36">
          <mxGeometry y="8" width="170" height="30" as="geometry" />
        </mxCell>
        <mxCell id="XB6QEq4kw-e9aRP56zeP-38" value="" style="swimlane;startSize=0;" vertex="1" parent="XB6QEq4kw-e9aRP56zeP-36">
          <mxGeometry x="20" y="80" width="450" height="270" as="geometry" />
        </mxCell>
        <mxCell id="XB6QEq4kw-e9aRP56zeP-39" value="For each entry in demographics" style="text;html=1;align=center;verticalAlign=middle;resizable=0;points=[];autosize=1;strokeColor=none;fillColor=none;" vertex="1" parent="XB6QEq4kw-e9aRP56zeP-38">
          <mxGeometry y="10" width="190" height="30" as="geometry" />
        </mxCell>
        <mxCell id="XB6QEq4kw-e9aRP56zeP-46" value="Calculates final bid (money_to_display * number of &lt;br&gt;faces that match entry&#39;s demographics)" style="endArrow=classic;html=1;rounded=0;" edge="1" parent="XB6QEq4kw-e9aRP56zeP-38">
          <mxGeometry x="0.0241" y="125" width="50" height="50" relative="1" as="geometry">
            <mxPoint x="30" y="160" as="sourcePoint" />
            <mxPoint x="30" y="196" as="targetPoint" />
            <Array as="points">
              <mxPoint x="95" y="160" />
              <mxPoint x="95" y="196" />
            </Array>
            <mxPoint as="offset" />
          </mxGeometry>
        </mxCell>
        <mxCell id="XB6QEq4kw-e9aRP56zeP-48" value="If above max bid, replace the bidding ad" style="endArrow=classic;html=1;rounded=0;" edge="1" parent="XB6QEq4kw-e9aRP56zeP-38">
          <mxGeometry x="0.0241" y="105" width="50" height="50" relative="1" as="geometry">
            <mxPoint x="30" y="210" as="sourcePoint" />
            <mxPoint x="30" y="246" as="targetPoint" />
            <Array as="points">
              <mxPoint x="95" y="210" />
              <mxPoint x="95" y="246" />
            </Array>
            <mxPoint as="offset" />
          </mxGeometry>
        </mxCell>
        <mxCell id="XB6QEq4kw-e9aRP56zeP-40" value="Ad Database" style="shape=umlLifeline;perimeter=lifelinePerimeter;whiteSpace=wrap;html=1;container=1;collapsible=0;recursiveResize=0;outlineConnect=0;rounded=1;shadow=0;comic=0;labelBackgroundColor=none;strokeWidth=1;fontFamily=Verdana;fontSize=12;align=center;" vertex="1" parent="1">
          <mxGeometry x="690" y="80" width="170" height="590" as="geometry" />
        </mxCell>
        <mxCell id="XB6QEq4kw-e9aRP56zeP-41" value="" style="html=1;points=[];perimeter=orthogonalPerimeter;rounded=0;shadow=0;comic=0;labelBackgroundColor=none;strokeWidth=1;fontFamily=Verdana;fontSize=12;align=center;" vertex="1" parent="XB6QEq4kw-e9aRP56zeP-40">
          <mxGeometry x="80" y="210" width="10" height="160" as="geometry" />
        </mxCell>
        <mxCell id="XB6QEq4kw-e9aRP56zeP-42" value="" style="endArrow=classic;html=1;rounded=0;" edge="1" parent="1" source="XB6QEq4kw-e9aRP56zeP-35">
          <mxGeometry width="50" height="50" relative="1" as="geometry">
            <mxPoint x="490" y="390" as="sourcePoint" />
            <mxPoint x="775" y="336" as="targetPoint" />
            <Array as="points" />
          </mxGeometry>
        </mxCell>
        <mxCell id="XB6QEq4kw-e9aRP56zeP-43" value="looks for ads based on agent&#39;s characteristics (gender, age, etc...)" style="edgeLabel;html=1;align=center;verticalAlign=middle;resizable=0;points=[];" vertex="1" connectable="0" parent="XB6QEq4kw-e9aRP56zeP-42">
          <mxGeometry x="-0.0973" relative="1" as="geometry">
            <mxPoint x="9" y="-16" as="offset" />
          </mxGeometry>
        </mxCell>
        <mxCell id="XB6QEq4kw-e9aRP56zeP-44" value="Receives filtered ads" style="endArrow=classic;html=1;rounded=0;" edge="1" parent="1" source="XB6QEq4kw-e9aRP56zeP-41">
          <mxGeometry x="0.0843" y="-9" width="50" height="50" relative="1" as="geometry">
            <mxPoint x="670" y="400" as="sourcePoint" />
            <mxPoint x="440" y="370" as="targetPoint" />
            <Array as="points">
              <mxPoint x="500" y="370" />
            </Array>
            <mxPoint as="offset" />
          </mxGeometry>
        </mxCell>
        <mxCell id="XB6QEq4kw-e9aRP56zeP-49" value="" style="endArrow=classic;html=1;rounded=0;" edge="1" parent="1" source="7baba1c4bc27f4b0-3" target="7baba1c4bc27f4b0-8">
          <mxGeometry width="50" height="50" relative="1" as="geometry">
            <mxPoint x="290" y="480" as="sourcePoint" />
            <mxPoint x="340" y="430" as="targetPoint" />
            <Array as="points">
              <mxPoint x="310" y="560" />
            </Array>
          </mxGeometry>
        </mxCell>
        <mxCell id="XB6QEq4kw-e9aRP56zeP-50" value="Sends ad with max bid" style="edgeLabel;html=1;align=center;verticalAlign=middle;resizable=0;points=[];" vertex="1" connectable="0" parent="XB6QEq4kw-e9aRP56zeP-49">
          <mxGeometry x="0.0615" y="-1" relative="1" as="geometry">
            <mxPoint x="-1" y="-9" as="offset" />
          </mxGeometry>
        </mxCell>
        <mxCell id="XB6QEq4kw-e9aRP56zeP-52" value="" style="endArrow=classic;html=1;rounded=0;" edge="1" parent="1">
          <mxGeometry width="50" height="50" relative="1" as="geometry">
            <mxPoint x="235" y="640" as="sourcePoint" />
            <mxPoint x="10" y="640" as="targetPoint" />
            <Array as="points">
              <mxPoint x="110" y="640" />
            </Array>
          </mxGeometry>
        </mxCell>
        <mxCell id="XB6QEq4kw-e9aRP56zeP-53" value="Sends winning ad info" style="edgeLabel;html=1;align=center;verticalAlign=middle;resizable=0;points=[];" vertex="1" connectable="0" parent="XB6QEq4kw-e9aRP56zeP-52">
          <mxGeometry x="0.0615" y="-1" relative="1" as="geometry">
            <mxPoint x="-1" y="-9" as="offset" />
          </mxGeometry>
        </mxCell>
      </root>
    </mxGraphModel>
  </diagram>
</mxfile>
